<svg width="40" height="41" viewBox="0 0 40 41" fill="none" xmlns="http://www.w3.org/2000/svg">
<g filter="url(#filter0_d_0_412)">
<path d="M35.4062 28.1562H31.6875V17.4841C32.016 17.4166 32.3259 17.2783 32.5956 17.0789C32.8653 16.8795 33.0884 16.6238 33.2492 16.3295C33.4101 16.0352 33.505 15.7094 33.5273 15.3747C33.5495 15.0401 33.4987 14.7046 33.3782 14.3916L31.6875 9.9948V1.59375C31.6875 1.52398 31.6738 1.45489 31.6471 1.39043C31.6204 1.32597 31.5813 1.26739 31.5319 1.21806C31.4826 1.16872 31.424 1.12959 31.3596 1.1029C31.2951 1.07621 31.226 1.06248 31.1562 1.0625H8.84375C8.77398 1.06248 8.70489 1.07621 8.64043 1.1029C8.57597 1.12959 8.51739 1.16872 8.46806 1.21806C8.41872 1.26739 8.37959 1.32597 8.3529 1.39043C8.32621 1.45489 8.31248 1.52398 8.3125 1.59375V9.9948L6.6218 14.3916C6.50132 14.7046 6.45045 15.0401 6.47272 15.3747C6.49499 15.7094 6.58987 16.0352 6.75076 16.3295C6.91165 16.6238 7.1347 16.8795 7.40439 17.0789C7.67409 17.2783 7.98397 17.4166 8.3125 17.4841V28.1562H4.59375C4.52398 28.1562 4.45489 28.17 4.39043 28.1967C4.32597 28.2233 4.26739 28.2625 4.21806 28.3118C4.16872 28.3611 4.12959 28.4197 4.1029 28.4842C4.07621 28.5486 4.06248 28.6177 4.0625 28.6875V32.4062C4.06248 32.476 4.07621 32.5451 4.1029 32.6096C4.12959 32.674 4.16872 32.7326 4.21806 32.7819C4.26739 32.8313 4.32597 32.8704 4.39043 32.8971C4.45489 32.9238 4.52398 32.9375 4.59375 32.9375H35.4062C35.476 32.9375 35.5451 32.9238 35.6096 32.8971C35.674 32.8704 35.7326 32.8313 35.7819 32.7819C35.8313 32.7326 35.8704 32.674 35.8971 32.6096C35.9238 32.5451 35.9375 32.476 35.9375 32.4062V28.6875C35.9375 28.6177 35.9238 28.5486 35.8971 28.4842C35.8704 28.4197 35.8313 28.3611 35.7819 28.3118C35.7326 28.2625 35.674 28.2233 35.6096 28.1967C35.5451 28.17 35.476 28.1562 35.4062 28.1562ZM29.5625 28.1562V16.8254C29.8532 17.1267 30.2205 17.3432 30.625 17.4515V28.1562H29.5625ZM25.3125 28.6875V31.875H23.1875V28.1562H24.25C24.3909 28.1562 24.526 28.1003 24.6256 28.0006C24.7253 27.901 24.7812 27.7659 24.7812 27.625V26.0312C24.7812 25.8904 24.7253 25.7552 24.6256 25.6556C24.526 25.556 24.3909 25.5 24.25 25.5H21.0625C20.9216 25.5 20.7865 25.556 20.6869 25.6556C20.5872 25.7552 20.5313 25.8904 20.5312 26.0312V27.625C20.5313 27.7659 20.5872 27.901 20.6869 28.0006C20.7865 28.1003 20.9216 28.1562 21.0625 28.1562H22.125V31.875H20V28.6875C20 28.6177 19.9863 28.5486 19.9596 28.4842C19.9329 28.4197 19.8938 28.3611 19.8444 28.3118C19.7951 28.2625 19.7365 28.2233 19.6721 28.1967C19.6076 28.17 19.5385 28.1562 19.4688 28.1562H18.4062V26.5625C18.4063 26.4927 18.3925 26.4236 18.3658 26.3592C18.3392 26.2947 18.3 26.2361 18.2507 26.1868C18.2014 26.1375 18.1428 26.0983 18.0783 26.0717C18.0139 26.045 17.9448 26.0312 17.875 26.0312H16.8125V17.4828C17.3275 17.3762 17.7907 17.0969 18.1254 16.6912C18.1579 16.7317 18.1924 16.7709 18.2289 16.8094C18.444 17.0384 18.7039 17.2207 18.9925 17.3449C19.2811 17.4691 19.5922 17.5325 19.9064 17.5312H20.0936C20.4078 17.5325 20.7189 17.4691 21.0075 17.3449C21.2961 17.2207 21.556 17.0384 21.771 16.8094C21.8076 16.7709 21.8421 16.7317 21.8746 16.6912C21.9514 16.7837 22.0351 16.8701 22.125 16.9497V18.5938C21.4207 18.5945 20.7455 18.8745 20.2475 19.3725C19.7495 19.8705 19.4695 20.5457 19.4687 21.25C19.4687 21.3198 19.4825 21.3889 19.5091 21.4533C19.5358 21.5178 19.575 21.5764 19.6243 21.6257C19.6736 21.675 19.7322 21.7142 19.7967 21.7408C19.8611 21.7675 19.9302 21.7813 20 21.7812H25.3125C25.3823 21.7813 25.4514 21.7675 25.5158 21.7408C25.5803 21.7142 25.6389 21.675 25.6882 21.6257C25.7375 21.5764 25.7767 21.5178 25.8033 21.4533C25.83 21.3889 25.8438 21.3198 25.8437 21.25C25.843 20.5457 25.563 19.8705 25.065 19.3725C24.567 18.8745 23.8918 18.5945 23.1875 18.5938V17.4828C23.3419 17.5151 23.4992 17.5314 23.657 17.5312H23.823C24.1583 17.5315 24.4896 17.4587 24.7938 17.3178C25.0981 17.177 25.368 16.9716 25.5848 16.7158C25.5987 16.6998 25.612 16.6832 25.6246 16.6666C25.841 16.9373 26.1157 17.1557 26.4282 17.3054C26.7407 17.4551 27.083 17.5323 27.4295 17.5312H27.5325C27.8663 17.5319 28.1964 17.4603 28.5 17.3214V26.0312H27.4375C27.3677 26.0312 27.2986 26.045 27.2342 26.0717C27.1697 26.0983 27.1111 26.1375 27.0618 26.1868C27.0125 26.2361 26.9733 26.2947 26.9467 26.3592C26.92 26.4236 26.9062 26.4927 26.9062 26.5625V28.1562H25.8438C25.774 28.1562 25.7049 28.17 25.6404 28.1967C25.576 28.2233 25.5174 28.2625 25.4681 28.3118C25.4187 28.3611 25.3796 28.4197 25.3529 28.4842C25.3262 28.5486 25.3125 28.6177 25.3125 28.6875ZM21.5938 27.0938V26.5625H23.7188V27.0938H21.5938ZM11.2636 14.8929L12.4363 10.625H14.5925L13.8016 15.4242C13.7543 15.7163 13.6043 15.982 13.3786 16.1735C13.153 16.3649 12.8664 16.4696 12.5705 16.4688H12.4675C12.2757 16.4687 12.0865 16.4244 11.9146 16.3393C11.7426 16.2543 11.5926 16.1308 11.4762 15.9783C11.3597 15.8259 11.28 15.6487 11.2431 15.4605C11.2062 15.2722 11.2132 15.078 11.2636 14.8929ZM11.5 17.3214C11.8036 17.4603 12.1337 17.5319 12.4675 17.5312H12.5705C12.917 17.5323 13.2593 17.4551 13.5718 17.3054C13.8843 17.1557 14.159 16.9373 14.3754 16.6666C14.388 16.6832 14.4013 16.6998 14.4152 16.7158C14.7578 17.12 15.2292 17.3939 15.75 17.4914V20.1875H11.5V17.3214ZM16.177 16.4688C15.9959 16.4688 15.817 16.4295 15.6526 16.3534C15.4883 16.2774 15.3425 16.1665 15.2253 16.0284C15.1082 15.8903 15.0225 15.7284 14.9742 15.5539C14.926 15.3794 14.9163 15.1964 14.9458 15.0178L15.6696 10.625H17.8451L17.5888 15.2894C17.5713 15.608 17.4324 15.9077 17.2007 16.1271C16.969 16.3465 16.6621 16.4687 16.343 16.4688H16.177ZM20.9994 16.0789C20.8832 16.2025 20.7429 16.3009 20.587 16.368C20.4312 16.4351 20.2633 16.4694 20.0936 16.4688H19.9064C19.7371 16.4687 19.5695 16.4342 19.4139 16.3674C19.2584 16.3005 19.118 16.2027 19.0015 16.0799C18.8849 15.9571 18.7946 15.8118 18.736 15.653C18.6774 15.4941 18.6517 15.325 18.6606 15.1559L18.909 10.625H21.0911L21.3394 15.1526V15.1559C21.3491 15.3248 21.3239 15.494 21.2654 15.6528C21.207 15.8116 21.1164 15.9566 20.9994 16.0789ZM22.4112 15.2894L22.1549 10.625H24.3304L25.0542 15.0178C25.0837 15.1964 25.0741 15.3794 25.0258 15.5539C24.9775 15.7284 24.8918 15.8903 24.7747 16.0284C24.6575 16.1665 24.5117 16.2774 24.3474 16.3534C24.183 16.4295 24.0041 16.4688 23.823 16.4688H23.657C23.3379 16.4687 23.031 16.3465 22.7993 16.1271C22.5676 15.9077 22.4287 15.608 22.4112 15.2894V15.2894ZM23.1875 19.6562C23.517 19.6566 23.8383 19.759 24.1074 19.9492C24.3764 20.1394 24.58 20.4082 24.6903 20.7188H20.6222C20.7325 20.4082 20.9361 20.1394 21.2051 19.9492C21.4742 19.759 21.7955 19.6566 22.125 19.6562H23.1875ZM28.5246 15.9774C28.4087 16.1306 28.2587 16.2548 28.0865 16.3401C27.9143 16.4254 27.7246 16.4694 27.5325 16.4688H27.4295C27.1336 16.4696 26.847 16.3649 26.6214 16.1735C26.3957 15.982 26.2457 15.7163 26.1984 15.4242L25.4075 10.625H27.5637L28.7357 14.8903C28.7357 14.8909 28.7364 14.8923 28.7364 14.8929C28.7874 15.0778 28.7947 15.2719 28.758 15.46C28.7212 15.6482 28.6413 15.8253 28.5246 15.9774ZM27.9688 27.0938H28.5V28.1562H27.9688V27.0938ZM32.3868 14.7727C32.4595 14.9618 32.4851 15.1657 32.4614 15.3668C32.4377 15.568 32.3654 15.7604 32.2508 15.9273C32.1361 16.0943 31.9825 16.2308 31.8033 16.3252C31.624 16.4195 31.4245 16.4688 31.222 16.4688C30.9488 16.4681 30.6834 16.3782 30.4661 16.2126C30.2488 16.047 30.0917 15.8149 30.0187 15.5517L28.6654 10.625H30.7917L32.3868 14.7727ZM9.375 2.125H30.625V9.5625H9.375V2.125ZM7.74937 15.9275C7.63329 15.7612 7.56011 15.5687 7.53636 15.3672C7.51261 15.1658 7.53902 14.9615 7.61324 14.7727L9.20832 10.625H11.3346L9.98129 15.5517C9.90827 15.8149 9.75115 16.047 9.53389 16.2126C9.31664 16.3782 9.05117 16.4681 8.77801 16.4688C8.57524 16.4702 8.37525 16.4216 8.1958 16.3272C8.01635 16.2328 7.863 16.0955 7.74937 15.9275ZM9.375 17.4515C9.77946 17.3432 10.1468 17.1267 10.4375 16.8254V28.1562H9.375V17.4515ZM13.625 31.875H5.125V29.2188H13.625V31.875ZM14.1562 28.1562H11.5V21.25H15.75V31.875H14.6875V28.6875C14.6875 28.6177 14.6738 28.5486 14.6471 28.4842C14.6204 28.4197 14.5813 28.3611 14.5319 28.3118C14.4826 28.2625 14.424 28.2233 14.3596 28.1967C14.2951 28.17 14.226 28.1562 14.1562 28.1562ZM16.8125 27.0938H17.3438V28.6875C17.3437 28.7573 17.3575 28.8264 17.3842 28.8908C17.4108 28.9553 17.45 29.0139 17.4993 29.0632C17.5486 29.1125 17.6072 29.1517 17.6717 29.1783C17.7361 29.205 17.8052 29.2188 17.875 29.2188H18.9375V31.875H16.8125V27.0938ZM34.875 31.875H26.375V29.2188H34.875V31.875Z" fill="#FF2222"/>
<path d="M23.7188 6.375H23.1424C23.031 5.723 22.72 5.12164 22.2523 4.65393C21.7846 4.18623 21.1832 3.87523 20.5312 3.76387V3.1875C20.5312 3.0466 20.4753 2.91148 20.3757 2.81185C20.276 2.71222 20.1409 2.65625 20 2.65625C19.8591 2.65625 19.724 2.71222 19.6243 2.81185C19.5247 2.91148 19.4688 3.0466 19.4688 3.1875V3.76387C18.8168 3.87523 18.2154 4.18623 17.7477 4.65393C17.28 5.12164 16.969 5.723 16.8576 6.375H16.2812C16.1404 6.375 16.0052 6.43097 15.9056 6.5306C15.806 6.63023 15.75 6.76535 15.75 6.90625C15.7506 7.46964 15.9747 8.00977 16.3731 8.40815C16.7715 8.80652 17.3116 9.03061 17.875 9.03125H22.125C22.6884 9.03061 23.2285 8.80652 23.6269 8.40815C24.0253 8.00977 24.2494 7.46964 24.25 6.90625C24.25 6.76535 24.194 6.63023 24.0944 6.5306C23.9948 6.43097 23.8596 6.375 23.7188 6.375ZM20 4.78125C20.471 4.78186 20.9285 4.93863 21.3008 5.22702C21.6732 5.51541 21.9394 5.91914 22.0578 6.375H17.9422C18.0606 5.91914 18.3268 5.51541 18.6992 5.22702C19.0715 4.93863 19.529 4.78186 20 4.78125ZM22.125 7.96875H17.875C17.6885 7.96865 17.5054 7.91951 17.3439 7.82627C17.1825 7.73302 17.0484 7.59895 16.9551 7.4375H23.0449C22.9516 7.59895 22.8175 7.73302 22.6561 7.82627C22.4946 7.91951 22.3115 7.96865 22.125 7.96875Z" fill="#FF2222"/>
<path d="M16.0447 5.22327C16.1174 5.17476 16.1771 5.10903 16.2184 5.03192C16.2597 4.95481 16.2813 4.86871 16.2812 4.78125V3.1875H15.2188V4.47788C15.0502 4.56391 14.8718 4.62916 14.6875 4.67219V3.1875H13.625V4.67219C13.4407 4.62915 13.2623 4.56391 13.0938 4.47788V3.1875H12.0313V4.78125C12.0312 4.86871 12.0528 4.95481 12.0941 5.03192C12.1354 5.10903 12.1951 5.17476 12.2678 5.22327C12.6766 5.49621 13.1396 5.67743 13.625 5.75448V9.03125H14.6875V5.75448C15.1729 5.67743 15.6359 5.49621 16.0447 5.22327Z" fill="#FF2222"/>
<path d="M25.8436 2.65625C25.3264 2.65628 24.8269 2.84494 24.4388 3.18687C24.0508 3.52879 23.8007 4.00052 23.7355 4.51362C23.6704 5.02672 23.7946 5.54597 24.0848 5.97406C24.3751 6.40214 24.8116 6.70967 25.3124 6.839V9.03125H26.3749V6.839C26.8757 6.70967 27.3121 6.40214 27.6024 5.97406C27.8926 5.54597 28.0168 5.02672 27.9517 4.51362C27.8865 4.00052 27.6364 3.52879 27.2484 3.18687C26.8603 2.84494 26.3608 2.65628 25.8436 2.65625ZM25.8436 5.84375C25.6335 5.84375 25.428 5.78144 25.2533 5.66469C25.0786 5.54794 24.9424 5.382 24.862 5.18785C24.7816 4.9937 24.7605 4.78007 24.8015 4.57397C24.8425 4.36786 24.9437 4.17854 25.0923 4.02995C25.2409 3.88136 25.4302 3.78016 25.6363 3.73917C25.8424 3.69817 26.0561 3.71921 26.2502 3.79963C26.4444 3.88005 26.6103 4.01623 26.727 4.19096C26.8438 4.36568 26.9061 4.57111 26.9061 4.78125C26.9058 5.06294 26.7937 5.33301 26.5946 5.5322C26.3954 5.73138 26.1253 5.84343 25.8436 5.84375Z" fill="#FF2222"/>
</g>
<defs>
<filter id="filter0_d_0_412" x="-1" y="0" width="42" height="42" filterUnits="userSpaceOnUse" color-interpolation-filters="sRGB">
<feFlood flood-opacity="0" result="BackgroundImageFix"/>
<feColorMatrix in="SourceAlpha" type="matrix" values="0 0 0 0 0 0 0 0 0 0 0 0 0 0 0 0 0 0 127 0" result="hardAlpha"/>
<feOffset dy="4"/>
<feGaussianBlur stdDeviation="2"/>
<feComposite in2="hardAlpha" operator="out"/>
<feColorMatrix type="matrix" values="0 0 0 0 0 0 0 0 0 0 0 0 0 0 0 0 0 0 0.25 0"/>
<feBlend mode="normal" in2="BackgroundImageFix" result="effect1_dropShadow_0_412"/>
<feBlend mode="normal" in="SourceGraphic" in2="effect1_dropShadow_0_412" result="shape"/>
</filter>
</defs>
</svg>
